HIERARCHY
ROOT base
{
	OFFSET 0.0 0.0 0.0
	CHANNELS 6 Xposition Yposition Zposition Zrotation Yrotation Xrotation
	JOINT root
	{
		OFFSET 0 0 0
		CHANNELS 6 Xposition Yposition Zposition Zrotation Yrotation Xrotation
		JOINT chest
		{
			OFFSET 0 4.72302 0
			CHANNELS 3 Zrotation Yrotation Xrotation
			JOINT neck
			{
				OFFSET 0 4.47788 0
				CHANNELS 3 Zrotation Yrotation Xrotation
				End Site
				{
					OFFSET 0.0 0.0 0.0
				}
			}
			JOINT right_shoulder
			{
				OFFSET -0.481 4.87 3.6622
				CHANNELS 3 Zrotation Yrotation Xrotation
				JOINT right_elbow
				{
					OFFSET 0 -5.49576 0
					CHANNELS 3 Zrotation Yrotation Xrotation
					JOINT right_wrist
					{
						OFFSET 0 -5.17894 0
						CHANNELS 3 Zrotation Yrotation Xrotation
						End Site
						{
							OFFSET 0.0 0.0 0.0
						}
					}
				}
			}
			JOINT left_shoulder
			{
				OFFSET -0.481 4.87 -3.6622
				CHANNELS 3 Zrotation Yrotation Xrotation
				JOINT left_elbow
				{
					OFFSET 0 -5.49576 0
					CHANNELS 3 Zrotation Yrotation Xrotation
					JOINT left_wrist
					{
						OFFSET 0 -5.17894 0
						CHANNELS 3 Zrotation Yrotation Xrotation
						End Site
						{
							OFFSET 0.0 0.0 0.0
						}
					}
				}
			}
		}
		JOINT right_hip
		{
			OFFSET 0 0 1.69774
			CHANNELS 3 Zrotation Yrotation Xrotation
			JOINT right_knee
			{
				OFFSET 0 -8.43092 0
				CHANNELS 3 Zrotation Yrotation Xrotation
				JOINT right_ankle
				{
					OFFSET 0 -8.1974 0
					CHANNELS 3 Zrotation Yrotation Xrotation
					End Site
					{
						OFFSET 0.0 0.0 0.0
					}
				}
			}
		}
		JOINT left_hip
		{
			OFFSET 0 0 -1.69774
			CHANNELS 3 Zrotation Yrotation Xrotation
			JOINT left_knee
			{
				OFFSET 0 -8.43092 0
				CHANNELS 3 Zrotation Yrotation Xrotation
				JOINT left_ankle
				{
					OFFSET 0 -8.1974 0
					CHANNELS 3 Zrotation Yrotation Xrotation
					End Site
					{
						OFFSET 0.0 0.0 0.0
					}
				}
			}
		}
	}
	JOINT red_arrow
	{
		OFFSET 0 0 0
		CHANNELS 3 Zrotation Yrotation Xrotation
		End Site
		{
			OFFSET 0.0 0.0 0.0
		}
	}
	JOINT blue_arrow
	{
		OFFSET 0 0 0
		CHANNELS 3 Zrotation Yrotation Xrotation
		End Site
		{
			OFFSET 0.0 0.0 0.0
		}
	}
}
MOTION
Frames: 12
Frame Time: 0.0333333333333333
0 18.08466 0 0 0 0 0 0 0 0 -90 0 0 0 0 0 0 0 0 0 -90 0 0 0 0 0 0 0 0 90 0 0 0 0 0 0 0 0 0 0 0 0 0 0 0 0 0 0 0 0 0 0 0 0 0 0 0 0 0 0
-0.404402562975884 0 -0.0223357124254107 0 -1.926302350602 0 0 17.9460922718048 0 -4.51766817477658 2.23632751040404E-15 2.82788161341551 -1.05265193896319 1.0303880616782 0.897920440073137 -15.653255011448 -5.18256093037467 2.06814589283972 11.8940091395623 -10.278148626251 -13.6074610211937 13.2611802500213 0 0 0 0 0 9.81591621395355 -8.22989217999528 14.131374768417 4.49580766973399 0 0 0 0 0 1.83779942728883 -0.8048347814099 -2.71094797621665 9.61764479862034E-06 0 0 -1.15672391542064 -8.25562844705695 1.64975889022443 2.65960063638321 0.175692272546356 -1.59833661460167 0.000536065420989367 0 0 -7.06363903627804 9.89792463350254 -0.985144904316735 0 0 0 0 0 0
-0.731683360040188 0 -0.0616982664912939 0 -1.92447430507286 0 0 17.9546325564384 0 -5.5754347400336 0.0345685490027952 2.37588699594132 -6.3247144849597 0.743883573921356 2.3974063436083 -16.5768870084667 -7.73778755658842 3.90857230101539 13.2804576058602 -10.7243022975085 -27.9494825481058 5.3916411940077 0 0 0 0 0 3.06618585921397 -10.7196547282675 24.8758530624288 -0.00305428100420919 0 0 0 0 0 4.84491588380082 -1.66480342062993 -2.233798511588 -0.0155176728610066 0 0 -4.86302580537014 -7.44539178857385 0.620472386478923 5.19918996368319 2.29635104073459 -1.0846957666439 -0.776308468810512 0 0 -8.03079124908126 7.48625117622458 -2.25003394195429 0 0 0 0 0 0
-1.22962993383408 0 -0.16768682859838 0 -1.86077470995259 0 0 17.8787289381027 0 -8.99655573983985 1.19540732724655 2.2816186560453 -10.9416971238571 0.777144680894029 4.23725589486056 -16.6483639633947 -10.7502053199784 6.33490691342009 11.9331473270303 -14.8485005287692 -44.9918455774244 -0.000180440948639871 0 0 0 0 0 -7.6403107488062 -8.72912817480965 37.143940528254 -0.111017761367255 0 0 0 0 0 9.80008683425284 -2.57528933217895 -2.60188997504781 0.000708269387231623 0 0 -4.63978777792246 -7.56023690642687 0.645727021233668 10.3717346467201 6.2400761856494 -1.71098065888582 -0.879047480614757 0 0 -8.02920314090323 4.33533898351702 -1.12322969941479 0 0 0 0 0 0
-1.77524621188641 0 -0.244328873604536 0 -1.701002002046 0 0 17.7458866596222 0 -12.2012628308123 2.96723311255846 1.86532254264387 -16.1971558089847 0.800960182612844 6.35488076424228 -16.2005691377086 -12.5572581243946 8.80943163492715 9.51289016548421 -24.1596121548887 -59.5652005258054 -0.00539379796964542 0 0 0 0 0 -16.7208876514157 -2.24972429058619 45.0781250686586 -1.58262007136949E-05 0 0 0 0 0 15.1645161407025 -4.17046149328018 -2.93307199664334 -1.14466019722333 0 0 -2.94326025672178 -7.68585120144374 0.448053280478915 15.9381816066018 9.93288045494259 -2.20820173491438 -2.04917499865383 0 0 -6.80056281954553 0.574727105627065 0.386500554963978 0 0 0 0 0 0
-2.45457627773285 0 -0.229084743186831 0 -1.46934235112066 0 0 17.6212476849556 0 -16.3436493573818 4.22432999017988 0.985999973243949 -20.5123321951344 0.882437344406996 7.60545227086979 -14.8894676022801 -12.4272919770128 10.948327681297 8.47101824874068 -35.4244723465784 -67.9732218814467 -0.229662522840314 0 0 0 0 0 -22.5921882290653 7.47854915797074 47.5739363448561 -0.00238559364502571 0 0 0 0 0 23.8263838868107 -5.77100389996475 -3.14193734746881 -6.10574174060076 0 0 -1.17257804896704 -6.30709524145437 0.260109905877883 24.5019270274386 14.5983123133562 -1.92096898777021 -5.84521441999438 0 0 -6.30476645814748 -2.33424998380654 2.04493679455006 0 0 0 0 0 0
-3.21591819524765 0 -0.100425183959305 0 -1.20758778858034 0 0 17.4952716350555 0 -21.2031116213966 4.6381843449648 -0.473929054418043 -23.6871415252106 0.75988871281202 7.5295664416737 -12.3587956487975 -10.6489582366592 11.5661066170674 6.69164565159859 -45.5020102692655 -68.7984646651911 -3.01207000314489E-05 0 0 0 0 0 -26.717678110341 19.2850251125589 46.3566265075539 -0.102356721313922 0 0 0 0 0 34.9015450747393 -6.22147027323157 -2.9646353606578 -13.9581651963279 0 0 -1.02086836815096 -3.47334800832285 0.264019836769881 36.3472730216778 17.5164085472787 0.104187545705427 -13.2077843924111 0 0 -6.62017427798217 -3.36172246380222 3.54820135745587 0 0 0 0 0 0
-3.86026192307472 0 0.0825165625661612 0 -0.937863197771516 0 0 17.2567821502686 0 -25.01944178036 4.64609470687437 -2.25630394273197 -25.5980271139918 0.745788743306204 6.81578382330392 -9.20026410385246 -8.18470329606658 10.3458547029051 1.13310736598448 -53.4989207842151 -61.996267822434 -4.77677431611775E-07 0 0 0 0 0 -29.7757366666956 32.3142540676089 42.7076739317825 -1.30034200636844E-05 0 0 0 0 0 45.4911448217863 -4.72889048951914 -2.44784654242073 -24.1586027830304 0 0 -0.312855037480774 -0.0387091135433858 0.712167805741435 48.276497131355 17.7123567859884 3.21610709661018 -22.92532675102 0 0 -5.96616169057635 -3.48933366255928 4.44268689792703 0 0 0 0 0 0
-4.34817072153091 0 0.246484608203173 0 -0.679446491316909 0 0 16.849004137516 0 -27.4956137710211 4.35759468953085 -3.80538220438125 -26.1640550141039 0.911545684892223 5.91982646592647 -5.43956710897622 -6.07477156137597 7.50888338717564 -8.0546001130562 -58.3201454004828 -49.206535858167 -0.00420751742441019 0 0 0 0 0 -31.3815074737179 45.2513255202944 37.6988632474909 -3.44115416717792E-06 0 0 0 0 0 55.7965547976323 -2.07112147800357 -1.27123605161051 -36.6050020829981 0 0 0.119370984941851 0.991242723077556 1.37465704479391 58.7082353515873 16.1043360357842 5.98588691929846 -33.5821516016472 0 0 -3.83426356176244 -2.36760283008492 4.77501985119797 0 0 0 0 0 0
-4.68323859572411 0 0.343353682011366 0 -0.460298662138739 0 0 16.2649839639664 0 -28.4934228180177 3.66092007574836 -4.69132499192345 -26.2996762561385 1.51124957541315 5.36075894233142 -1.78710873579134 -4.7211133634654 3.85454614887151 -18.2257088560686 -57.9358385646907 -33.2622717963421 -9.40360761566507E-07 0 0 0 0 0 -30.1222403974708 54.8541828273541 31.6379282405595 -0.0943790203427073 0 0 0 0 0 65.786090166336 0.804609380475404 0.801583276882633 -50.5610354065313 0 0 -1.69690887874532 0.43165319475872 1.95682170846086 66.729466350077 13.4543680311875 7.92904938972119 -44.3688439616057 0 0 0.487321638918899 -0.929013513529283 4.42428126681606 0 0 0 0 0 0
-4.89087937474251 0 0.384992034733295 0 -0.300481375738026 0 0 15.512125658989 0 -28.3543002457143 2.6727932012185 -4.76849582940805 -25.6034091799203 2.14128041765817 4.70451855226727 1.61426534523374 -3.88631884458096 0.587404884760711 -21.9113944203878 -53.1140346716526 -21.5566192623633 -0.000211515034236862 0 0 0 0 0 -22.7314075468597 62.2345074798618 27.9655769706816 -1.25702751302784E-05 0 0 0 0 0 74.937719749245 3.05460348636929 3.75840957028365 -63.0063572441574 0 0 -1.25941818363771 0.275445524983038 1.41692931710914 72.7975142674238 10.6243884803964 8.91104714825428 -54.5733105061448 0 0 6.45961000557746 0.727147654668657 3.76212819388458 0 0 0 0 0 0
-4.95432822704315 0 0.416221477091312 0 -0.143243565715615 0 0 14.6426619529724 0 -26.9196078147868 2.66429352242329 -4.31205026680802 -22.9808359035101 2.5927149156026 4.06093218586529 3.91155752762523 -3.12352797851218 -1.42511304259036 -19.4992853111629 -44.9771351876934 -14.6809558639682 -0.0292294743879522 0 0 0 0 0 -6.37957676065581 65.5456642304253 30.9754109611748 -0.0113638189455746 0 0 0 0 0 80.5319756158805 3.71753100818525 6.03265098616057 -70.3457370167946 0 0 -0.118509256469912 0.248413842259682 0.712845140891073 76.0933280229814 8.79719556501739 8.71696836610239 -63.4076923295982 0 0 14.9535222355109 1.94934956366131 3.43328908244515 0 0 0 0 0 0
